<svg xmlns="http://www.w3.org/2000/svg" viewBox="0 0 487 585" width="487" height="585">
	<defs>
		<clipPath clipPathUnits="userSpaceOnUse" id="cp1">
			<path d="M-1400 -702L520 -702L520 4608L-1400 4608L-1400 -702Z" />
		</clipPath>
		<clipPath clipPathUnits="userSpaceOnUse" id="cp2">
			<path d="M105.75 165.58C87.28 165.58 72.35 150.65 72.35 132.19C72.35 113.72 87.28 98.79 105.75 98.79C124.22 98.79 139.14 113.72 139.14 132.19C139.14 150.65 124.22 165.58 105.75 165.58Z" />
		</clipPath>
		<clipPath clipPathUnits="userSpaceOnUse" id="cp3">
			<path d="M105.75 288.03C87.28 288.03 72.35 273.1 72.35 254.63C72.35 236.16 87.28 221.24 105.75 221.24C124.22 221.24 139.14 236.16 139.14 254.63C139.14 273.1 124.22 288.03 105.75 288.03Z" />
		</clipPath>
		<clipPath clipPathUnits="userSpaceOnUse" id="cp4">
			<path d="M105.75 410.47C87.28 410.47 72.35 395.54 72.35 377.08C72.35 358.61 87.28 343.68 105.75 343.68C124.22 343.68 139.14 358.61 139.14 377.08C139.14 395.54 124.22 410.47 105.75 410.47Z" />
		</clipPath>
		<clipPath clipPathUnits="userSpaceOnUse" id="cp5">
			<path d="M105.75 532.92C87.28 532.92 72.35 517.99 72.35 499.52C72.35 481.06 87.28 466.13 105.75 466.13C124.22 466.13 139.14 481.06 139.14 499.52C139.14 517.99 124.22 532.92 105.75 532.92Z" />
		</clipPath>
	</defs>
	<style>
		tspan { white-space:pre }
		.shp0 { fill: #ffffff } 
		.shp1 { fill: none;stroke: #e6ebf0;stroke-linecap:square } 
		.txt2 { font-size: 27px;fill: #42505c;font-family: "" Aktiv  Grotesk"" } 
		.shp3 { fill: #ffb653 } 
		.shp4 { fill: #ffd7ab } 
		.shp5 { fill: #ffabab } 
		.shp6 { fill: #b9c0e9 } 
		.shp7 { fill: #ff5353 } 
		.shp8 { opacity: 0.471;fill: #ff5353 } 
		.shp9 { opacity: 0.49;fill: #b9c0e9 } 
	</style>
	<g id="Clip-Path: ::::Home" clip-path="url(#cp1)">
		<g id="Layer 52">
			<g id="Top Earners">
				<path id="cardBg" class="shp0" d="M8 0L479 0C483.42 0 487 3.58 487 8L487 576.4C487 580.82 483.42 584.4 479 584.4L8 584.4C3.58 584.4 0 580.82 0 576.4L0 8C0 3.58 3.58 0 8 0Z" />
				<path id="Line 2 Copy" class="shp1" d="M33.39 192.71L453.61 192.71" />
				<path id="Line 2 Copy" class="shp1" d="M33.39 315.16L453.61 315.16" />
				<path id="Line 2 Copy" class="shp1" d="M33.39 437.61L453.61 437.6" />
				<text id="1." style="transform: matrix(1,0,0,1,33.394,143.097)" >
					<tspan x="0" y="0" class="txt2">1.</tspan>
				</text>
				<text id="2." style="transform: matrix(1,0,0,1,33.394,265.543)" >
					<tspan x="0" y="0" class="txt2">2.</tspan>
				</text>
				<text id="4." style="transform: matrix(1,0,0,1,33.394,510.434)" >
					<tspan x="0" y="0" class="txt2">4.</tspan>
				</text>
				<text id="3." style="transform: matrix(1,0,0,1,33.394,387.989)" >
					<tspan x="0" y="0" class="txt2">3.</tspan>
				</text>
				<g id="profilePicMask">
					<path id="Mask" class="shp3" d="M105.75 165.58C87.28 165.58 72.35 150.65 72.35 132.19C72.35 113.72 87.28 98.79 105.75 98.79C124.22 98.79 139.14 113.72 139.14 132.19C139.14 150.65 124.22 165.58 105.75 165.58Z" />
					<g id="Clip-Path: profilePicMask" clip-path="url(#cp2)">
						<g id="profilePicMask">
						</g>
					</g>
				</g>
				<g id="profilePicMask">
					<path id="Mask" class="shp3" d="M105.75 288.03C87.28 288.03 72.35 273.1 72.35 254.63C72.35 236.16 87.28 221.24 105.75 221.24C124.22 221.24 139.14 236.16 139.14 254.63C139.14 273.1 124.22 288.03 105.75 288.03Z" />
					<g id="Clip-Path: profilePicMask" clip-path="url(#cp3)">
						<g id="profilePicMask">
						</g>
					</g>
				</g>
				<g id="profilePicMask">
					<path id="Mask" class="shp4" d="M105.75 410.47C87.28 410.47 72.35 395.54 72.35 377.08C72.35 358.61 87.28 343.68 105.75 343.68C124.22 343.68 139.14 358.61 139.14 377.08C139.14 395.54 124.22 410.47 105.75 410.47Z" />
					<g id="Clip-Path: profilePicMask" clip-path="url(#cp4)">
						<g id="profilePicMask">
						</g>
					</g>
				</g>
				<g id="profilePicMask">
					<path id="Mask" class="shp5" d="M105.75 532.92C87.28 532.92 72.35 517.99 72.35 499.52C72.35 481.06 87.28 466.13 105.75 466.13C124.22 466.13 139.14 481.06 139.14 499.52C139.14 517.99 124.22 532.92 105.75 532.92Z" />
					<g id="Clip-Path: profilePicMask" clip-path="url(#cp5)">
						<g id="profilePicMask">
						</g>
					</g>
				</g>
				<path id="Rectangle 524" class="shp6" d="M39 36.18L173.89 36.18C177.76 36.18 180.89 39.31 180.89 43.18L180.89 48.66C180.89 52.53 177.76 55.66 173.89 55.66L39 55.66C35.13 55.66 32 52.53 32 48.66L32 43.18C32 39.31 35.13 36.18 39 36.18Z" />
				<path id="Rectangle 527" class="shp6" d="M182.28 105.75L317.25 105.75C321.09 105.75 324.2 108.86 324.2 112.71L324.2 112.71C324.2 116.55 321.09 119.66 317.25 119.66L182.28 119.66C178.43 119.66 175.32 116.55 175.32 112.71L175.32 112.71C175.32 108.86 178.43 105.75 182.28 105.75Z" />
				<path id="Rectangle 530" class="shp7" d="M182.28 232.37L317.25 232.37C321.09 232.37 324.2 235.48 324.2 239.33L324.2 239.33C324.2 243.17 321.09 246.28 317.25 246.28L182.28 246.28C178.43 246.28 175.32 243.17 175.32 239.33L175.32 239.33C175.32 235.48 178.43 232.37 182.28 232.37Z" />
				<path id="Rectangle 532" class="shp7" d="M182.28 354.81L317.25 354.81C321.09 354.81 324.2 357.92 324.2 361.77L324.2 361.77C324.2 365.62 321.09 368.73 317.25 368.73L182.28 368.73C178.43 368.73 175.32 365.62 175.32 361.77L175.32 361.77C175.32 357.92 178.43 354.81 182.28 354.81Z" />
				<path id="Rectangle 534" class="shp7" d="M182.28 478.65L317.25 478.65C321.09 478.65 324.2 481.76 324.2 485.61L324.2 485.61C324.2 489.46 321.09 492.57 317.25 492.57L182.28 492.57C178.43 492.57 175.32 489.46 175.32 485.61L175.32 485.61C175.32 481.76 178.43 478.65 182.28 478.65Z" />
				<path id="Rectangle 528" class="shp8" d="M182.28 133.58L258.81 133.58C262.65 133.58 265.76 136.69 265.76 140.53L265.76 140.53C265.76 144.38 262.65 147.49 258.81 147.49L182.28 147.49C178.43 147.49 175.32 144.38 175.32 140.53L175.32 140.53C175.32 136.69 178.43 133.58 182.28 133.58Z" />
				<path id="Rectangle 529" class="shp8" d="M182.28 260.2L258.81 260.2C262.65 260.2 265.76 263.31 265.76 267.15L265.76 267.15C265.76 271 262.65 274.11 258.81 274.11L182.28 274.11C178.43 274.11 175.32 271 175.32 267.15L175.32 267.15C175.32 263.31 178.43 260.2 182.28 260.2Z" />
				<path id="Rectangle 531" class="shp8" d="M182.28 382.64L258.81 382.64C262.65 382.64 265.76 385.75 265.76 389.6L265.76 389.6C265.76 393.45 262.65 396.56 258.81 396.56L182.28 396.56C178.43 396.56 175.32 393.45 175.32 389.6L175.32 389.6C175.32 385.75 178.43 382.64 182.28 382.64Z" />
				<path id="Rectangle 533" class="shp8" d="M182.28 506.48L258.81 506.48C262.65 506.48 265.76 509.59 265.76 513.44L265.76 513.44C265.76 517.28 262.65 520.39 258.81 520.39L182.28 520.39C178.43 520.39 175.32 517.28 175.32 513.44L175.32 513.44C175.32 509.59 178.43 506.48 182.28 506.48Z" />
				<path id="Rectangle 525" class="shp9" d="M346.47 38.96L386.82 38.96C390.66 38.96 393.77 42.07 393.77 45.92L393.77 45.92C393.77 49.76 390.66 52.87 386.82 52.87L346.47 52.87C342.62 52.87 339.51 49.76 339.51 45.92L339.51 45.92C339.51 42.07 342.62 38.96 346.47 38.96Z" />
				<path id="Rectangle 526" class="shp6" d="M413.25 38.96L453.61 38.96C457.45 38.96 460.56 42.07 460.56 45.92L460.56 45.92C460.56 49.76 457.45 52.87 453.61 52.87L413.25 52.87C409.41 52.87 406.3 49.76 406.3 45.92L406.3 45.92C406.3 42.07 409.41 38.96 413.25 38.96Z" />
			</g>
		</g>
	</g>
</svg>