<svg xmlns="http://www.w3.org/2000/svg" viewBox="0 0 467 334" width="467" height="334">
	<defs>
		<clipPath clipPathUnits="userSpaceOnUse" id="cp1">
			<path d="M-738.89 -1068.55L1116.62 -575.08L-248.11 4556.55L-2103.62 4063.08L-738.89 -1068.55Z" />
		</clipPath>
	</defs>
	<style>
		tspan { white-space:pre }
		.shp0 { fill: #ffffff } 
		.shp1 { fill: none;stroke: #e6ebf0;stroke-linecap:square } 
		.txt2 { font-size: 18px;fill: #79828b;font-family: "" Poppins"" } 
		.shp3 { opacity: 0.502;fill: #b9b9b9 } 
		.shp4 { fill: #ff5353 } 
		.shp5 { opacity: 0.302;fill: #ff5353 } 
	</style>
	<g id="Clip-Path: ::::Home" clip-path="url(#cp1)">
		<g id="Layer 25">
			<g id="Rank, Projects">
				<path id="cardBg" class="shp0" d="M8.94 1.19L457.94 0.35C462.37 0.34 465.95 3.91 465.96 8.34L466.55 324.66C466.56 329.1 462.99 332.68 458.57 332.68L9.57 333.52C5.14 333.53 1.55 329.96 1.55 325.54L0.96 9.21C0.95 4.78 4.52 1.19 8.94 1.19Z" />
				<path id="divider" class="shp1" d="M33.45 186.74L434.13 185.99" />
				<text id="RANK" style="transform: matrix(1,-0.002,0.002,1,33.199,51.965)" >
					<tspan x="0" y="0" class="txt2">RANK</tspan>
				</text>
				<text id="PROJECTS" style="transform: matrix(1,-0.002,0.002,1,278.43,51.507)" >
					<tspan x="0" y="0" class="txt2">PROJECTS</tspan>
				</text>
				<g id="rank">
					<path id="Oval 8" class="shp3" d="M54.77 123.05C42.92 123.08 33.31 113.51 33.29 101.65C33.27 89.79 42.83 80.19 54.69 80.17C66.55 80.15 76.15 89.71 76.17 101.57C76.19 113.42 66.63 123.03 54.77 123.05Z" />
					<path id="Star" class="shp0" d="M54.75 108.66L48.13 112.34L49.37 104.58L44 99.1L51.42 97.96L54.71 90.89L58.04 97.94L65.44 99.06L60.1 104.56L61.38 112.32L54.75 108.66Z" />
				</g>
				<g id="projects">
					<path id="Oval 8" class="shp3" d="M300.01 122.59C288.14 122.62 278.55 113.05 278.52 101.19C278.5 89.33 288.07 79.73 299.92 79.71C311.78 79.69 321.38 89.25 321.4 101.11C321.43 112.97 311.86 122.57 300.01 122.59Z" />
					<path id="Fill 1" class="shp0" d="M305.12 110.52L305.12 110.52L303.18 108.52L309.5 101.81L303.16 95.14L305.09 93.1L313.36 101.79L305.12 110.51L305.12 110.52ZM296.18 110.53L296.18 110.53L287.9 101.84L296.14 93.11L298.08 95.16L291.77 101.83L298.11 108.52L296.18 110.53L296.18 110.53Z" />
				</g>
				<path id="Rectangle 492" class="shp4" d="M98.94 92.14L220.88 91.92C226.07 91.91 230.27 96.09 230.28 101.28L230.28 101.28C230.29 106.46 226.11 110.67 220.92 110.68L98.98 110.9C93.79 110.91 89.58 106.73 89.58 101.54L89.58 101.54C89.57 96.36 93.75 92.15 98.94 92.14Z" />
				<path id="Rectangle 500" class="shp4" d="M344.17 91.69L423.23 91.54C428.42 91.53 432.62 95.71 432.63 100.9L432.63 100.9C432.64 106.09 428.45 110.29 423.27 110.3L344.2 110.45C339.02 110.45 334.81 106.27 334.8 101.08L334.8 101.08C334.79 95.9 338.98 91.69 344.17 91.69Z" />
				<path id="Rectangle 494" class="shp5" d="M40.51 142.73L153.52 142.52C157.48 142.51 160.68 145.7 160.69 149.66L160.69 149.66C160.7 153.6 157.5 156.81 153.55 156.81L40.54 157.03C36.59 157.03 33.39 153.84 33.38 149.89L33.38 149.89C33.38 145.94 36.56 142.73 40.51 142.73Z" />
				<path id="Rectangle 496" class="shp4" d="M40.22 222.24L154.12 222.03C157.82 222.02 160.83 225.01 160.84 228.71L160.84 228.71C160.84 232.42 157.85 235.42 154.15 235.43L40.25 235.64C36.54 235.65 33.54 232.66 33.53 228.95L33.53 228.95C33.52 225.24 36.51 222.25 40.22 222.24Z" />
				<path id="Rectangle 497" class="shp5" d="M40.31 270.49L95.25 270.39C98.96 270.38 101.95 273.36 101.96 277.06L101.96 277.06C101.97 280.77 98.98 283.77 95.27 283.78L40.33 283.88C36.63 283.89 33.63 280.9 33.62 277.19L33.62 277.19C33.62 273.49 36.61 270.49 40.31 270.49Z" />
				<path id="Rectangle 498" class="shp5" d="M151.53 270.28L206.47 270.17C210.18 270.17 213.18 273.16 213.19 276.86L213.19 276.86C213.2 280.57 210.21 283.56 206.5 283.57L151.56 283.67C147.85 283.68 144.85 280.69 144.84 276.98L144.84 276.98C144.83 273.29 147.83 270.28 151.53 270.28Z" />
				<path id="Rectangle 499" class="shp5" d="M272.14 270.05L327.08 269.94C330.79 269.94 333.78 272.93 333.79 276.63L333.79 276.63C333.8 280.34 330.81 283.34 327.1 283.35L272.16 283.45C268.46 283.46 265.46 280.47 265.45 276.76L265.45 276.76C265.44 273.06 268.44 270.05 272.14 270.05Z" />
				<path id="Rectangle 495" class="shp5" d="M285.75 142.27L398.76 142.06C402.71 142.06 405.91 145.24 405.92 149.19L405.92 149.19C405.92 153.14 402.74 156.35 398.79 156.36L285.78 156.57C281.82 156.57 278.62 153.38 278.61 149.43L278.61 149.43C278.6 145.48 281.8 142.28 285.75 142.27Z" />
			</g>
		</g>
	</g>
</svg>