<svg xmlns="http://www.w3.org/2000/svg" viewBox="0 0 463 371" width="463" height="371">
	<defs>
		<clipPath clipPathUnits="userSpaceOnUse" id="cp1">
			<path d="M-1167 -251L753 -251L753 5059L-1167 5059L-1167 -251Z" />
		</clipPath>
	</defs>
	<style>
		tspan { white-space:pre }
		.shp0 { fill: #ffffff } 
		.shp1 { opacity: 0.788;fill: #ff5353 } 
		.shp2 { fill: none;stroke: #e6ebf0;stroke-linecap:square } 
		.shp3 { fill: #ff5353 } 
		.shp4 { opacity: 0.302;fill: #ff5353 } 
		.shp5 { opacity: 0.2;fill: #ff5353 } 
		.shp6 { opacity: 0.302;fill: #ffffff } 
	</style>
	<g id="Clip-Path: ::::Home" clip-path="url(#cp1)">
		<g id="Layer 29">
			<g id="Group 212">
				<path id="cardBg" class="shp0" d="M8 0.6L455 0.6C459.42 0.6 463 4.18 463 8.6L463 363C463 367.42 459.42 371 455 371L8 371C3.58 371 0 367.42 0 363L0 8.6C0 4.18 3.58 0.6 8 0.6Z" />
				<path id="Mask" class="shp1" d="M63.5 95.85C45.94 95.85 31.75 81.65 31.75 64.1C31.75 46.54 45.94 32.35 63.5 32.35C81.05 32.35 95.25 46.54 95.25 64.1C95.25 81.65 81.05 95.85 63.5 95.85Z" />
				<path id="divider" class="shp2" d="M31.75 269.8L431.25 269.8" />
				<path id="Rectangle 503" class="shp3" d="M127.38 42.93L237.73 42.93C241.6 42.93 244.73 46.06 244.73 49.93L244.73 50.48C244.73 54.35 241.6 57.48 237.73 57.48L127.38 57.48C123.51 57.48 120.38 54.35 120.38 50.48L120.38 49.93C120.38 46.06 123.51 42.93 127.38 42.93Z" />
				<path id="Rectangle 507" class="shp4" d="M127.38 68.07L195.4 68.07C199.27 68.07 202.4 71.19 202.4 75.07L202.4 75.62C202.4 79.49 199.27 82.62 195.4 82.62L127.38 82.62C123.51 82.62 120.38 79.49 120.38 75.62L120.38 75.07C120.38 71.19 123.51 68.07 127.38 68.07Z" />
				<path id="Rectangle 504" class="shp5" d="M38.75 146.11L412.35 146.11C416.22 146.11 419.35 149.24 419.35 153.11L419.35 153.67C419.35 157.54 416.22 160.67 412.35 160.67L38.75 160.67C34.88 160.67 31.75 157.54 31.75 153.67L31.75 153.11C31.75 149.24 34.88 146.11 38.75 146.11Z" />
				<path id="Rectangle 505" class="shp5" d="M38.75 173.89L325.04 173.89C328.91 173.89 332.04 177.02 332.04 180.89L332.04 181.45C332.04 185.32 328.91 188.45 325.04 188.45L38.75 188.45C34.88 188.45 31.75 185.32 31.75 181.45L31.75 180.89C31.75 177.02 34.88 173.89 38.75 173.89Z" />
				<path id="Rectangle 506" class="shp5" d="M38.75 201.67L254.93 201.67C258.8 201.67 261.93 204.8 261.93 208.67L261.93 209.23C261.93 213.1 258.8 216.23 254.93 216.23L38.75 216.23C34.88 216.23 31.75 213.1 31.75 209.23L31.75 208.67C31.75 204.8 34.88 201.67 38.75 201.67Z" />
				<g id="Group 200">
					<path id="Rectangle 6" class="shp4" d="M363.79 48.22L415.38 48.22C424.16 48.22 431.25 55.32 431.25 64.1L431.25 64.1C431.25 72.88 424.16 79.97 415.38 79.97L363.79 79.97C355.01 79.97 347.91 72.88 347.91 64.1L347.91 64.1C347.91 55.32 355.01 48.22 363.79 48.22Z" />
					<path id="Rectangle 6" class="shp6" d="M372.69 61.45L406.47 61.45C407.93 61.45 409.11 62.63 409.11 64.1L409.11 64.1C409.11 65.56 407.93 66.74 406.47 66.74L372.69 66.74C371.23 66.74 370.05 65.56 370.05 64.1L370.05 64.1C370.05 62.63 371.23 61.45 372.69 61.45Z" />
				</g>
				<g id="Group 201">
					<path id="Rectangle 6" class="shp3" d="M47.62 304.86L99.21 304.86C107.99 304.86 115.09 311.95 115.09 320.73L115.09 320.73C115.09 329.51 107.99 336.61 99.21 336.61L47.62 336.61C38.84 336.61 31.75 329.51 31.75 320.73L31.75 320.73C31.75 311.95 38.84 304.86 47.62 304.86Z" />
					<path id="Rectangle 6" class="shp6" d="M56.53 318.09L90.31 318.09C91.77 318.09 92.95 319.27 92.95 320.73L92.95 320.73C92.95 322.19 91.77 323.38 90.31 323.38L56.53 323.38C55.07 323.38 53.89 322.19 53.89 320.73L53.89 320.73C53.89 319.27 55.07 318.09 56.53 318.09Z" />
				</g>
				<g id="Group 202">
					<path id="Rectangle 6" class="shp3" d="M206.37 304.86L257.96 304.86C266.74 304.86 273.83 311.95 273.83 320.73L273.83 320.73C273.83 329.51 266.74 336.61 257.96 336.61L206.37 336.61C197.59 336.61 190.49 329.51 190.49 320.73L190.49 320.73C190.49 311.95 197.59 304.86 206.37 304.86Z" />
					<path id="Rectangle 6" class="shp6" d="M215.27 318.09L249.05 318.09C250.51 318.09 251.69 319.27 251.69 320.73L251.69 320.73C251.69 322.19 250.51 323.38 249.05 323.38L215.27 323.38C213.81 323.38 212.63 322.19 212.63 320.73L212.63 320.73C212.63 319.27 213.81 318.09 215.27 318.09Z" />
				</g>
				<g id="Group 203">
					<path id="Rectangle 6" class="shp3" d="M363.79 304.86L415.38 304.86C424.16 304.86 431.25 311.95 431.25 320.73L431.25 320.73C431.25 329.51 424.16 336.61 415.38 336.61L363.79 336.61C355.01 336.61 347.91 329.51 347.91 320.73L347.91 320.73C347.91 311.95 355.01 304.86 363.79 304.86Z" />
					<path id="Rectangle 6" class="shp6" d="M372.69 318.09L406.47 318.09C407.93 318.09 409.11 319.27 409.11 320.73L409.11 320.73C409.11 322.19 407.93 323.38 406.47 323.38L372.69 323.38C371.23 323.38 370.05 322.19 370.05 320.73L370.05 320.73C370.05 319.27 371.23 318.09 372.69 318.09Z" />
				</g>
			</g>
		</g>
	</g>
</svg>